<svg xmlns="http://www.w3.org/2000/svg" xml:space="preserve" width="2000" height="1500" data-id="lg_QIx9nCPlbUnbKL0OeQ" data-version="1" viewBox="0 0 2000 1500"><path fill="#fff" stroke="transparent" d="M0 0h2000v1500H0z"/><g data-padding="20"><g transform="translate(-1196.746 -894.183)scale(2.13997)"><rect width="480.191" height="124.3" x="397.47" y="377.672" fill="none" rx="0" ry="0" transform="translate(280.58 358.23)scale(1.17)"/><path fill="#4f4f4f" d="M784.512 897.512h25.55q3.89 0 5.39-.76l.25.07-.63 15.72h-46.91v-83.75q1.69.13 3.76.19l4.38.13q4.38.12 9.52.12 14.34 0 28.38-.5-.69 5.51-.69 14.72 0 1 .12 1.5l-.12.19q-3.26-.94-9.27-.94h-19.73v15.97h14.84q6.89 0 8.27-.37l.19 15.47q-3.01-.31-7.77-.31h-15.53Zm85.25-69.84q11.71 0 19.98 4.07v19.16l-.13.13q-3.51-5.39-14.78-7.14-3.32-.57-8.39-.57-5.08 0-9.96 1.92-4.89 1.91-8.02 5.41-6.08 6.83-6.08 19.48 0 14.72 7.71 21.93 6.39 6.01 16.91 6.01 11.9 0 19.29-5.07 2.7-1.82 4.57-4.51l.19.12v17.54q-9.58 7.96-25.8 7.96-19.11 0-29.95-12.16-10.39-11.58-10.39-30.69 0-20.23 11.4-31.88 11.52-11.71 33.45-11.71m53.99 49.47v35.77q-6.01-.38-14.28-.38h-2.01v-83.62q3.89.31 5.52.31h2.56q4.95 0 8.21-.5v33.39h29.44v-33.2q5.2.31 10.11.31 4.92 0 6.17-.5v84.19q-3-.38-11.9-.38h-4.38v-35.39Zm75.35 25.5q-5.7-5.45-8.99-13.09-3.28-7.64-3.28-16.75 0-9.12 3.06-17.26 3.07-8.14 8.77-14.35 5.7-6.2 13.78-9.86t18.11-3.66q17.28 0 29.12 10.89 12.66 11.65 12.66 31.45 0 19.17-13.03 31.88-8.02 7.83-19.11 10.77-5.45 1.45-12.74 1.45-7.3 0-14.97-3.01-7.68-3.01-13.38-8.46m5.14-30.69q0 5.83 1.94 10.71 1.94 4.89 5.39 8.39 7.33 7.4 18.85 7.4 10.96 0 17.6-7.08 6.77-7.33 6.77-19.98 0-11.9-6.45-19.86-6.96-8.52-19.05-8.52-11.71 0-18.6 8.65-6.45 8.08-6.45 20.29m101.1 40.59h-16.35q.37-2.13.37-4.64v-78.67h12.53l33.2 52.24v-47.98q0-3.44-.63-4.26h16.91q-.31 2.51-.31 5.51v77.8h-13.03l-32.69-50.17Zm84.56-15.03h25.55q3.89 0 5.39-.76l.25.07-.63 15.72h-46.91v-83.75q1.69.13 3.76.19l4.38.13q4.39.12 9.52.12 14.35 0 28.38-.5-.69 5.51-.69 14.72 0 1 .12 1.5l-.12.19q-3.26-.94-9.27-.94h-19.73v15.97h14.84q6.89 0 8.27-.37l.19 15.47q-3.01-.31-7.77-.31h-15.53Zm77.98-54.25v69.66q-3.01-.38-15.47-.38h-2v-69.28h-12.41q-5.51 0-6.51.57-1 .56-1.57 1l-.19-.06v-16.04l.19-.19q2.07.69 11.15.69h39.28q5.51 0 6.51-.56 1-.57 1.57-1l.18.06v16.03l-.18.19q-2.07-.69-11.15-.69Z"/><rect width="354.821" height="21.47" x="460.156" y="429.087" fill="none" rx="0" ry="0" transform="translate(280 494.74)scale(1.17)"/><path fill="#4f4f4f" d="M1134.89 724.602h-34.548l-38.187 38.155-36.368-38.187H877.425V548.257h257.464ZM877.424 514.75c-18.489 0-33.475 14.985-33.475 33.475v176.377c0 18.49 14.986 33.475 33.475 33.475h133.998l26.487 27.787a33.48 33.48 0 0 0 23.823 10.4h.423a33.48 33.48 0 0 0 23.66-9.815l28.405-28.372h20.67c18.489 0 33.475-14.986 33.475-33.475V548.225c0-18.493-14.95-33.475-33.476-33.475Z"/><path fill="#4f4f4f" d="M968.88 621.87h.065c9.685-.26 16.445-6.696 16.445-15.666 0-9.23-6.955-15.925-16.51-15.925-9.295 0-16.315 6.76-16.315 15.698 0 9.23 6.825 15.925 16.315 15.925m74.392-.033h.065c9.685-.26 16.445-6.695 16.445-15.665 0-9.23-6.955-15.925-16.51-15.925-9.295 0-16.315 6.76-16.315 15.698 0 9.23 6.825 15.925 16.315 15.925m58.077 3.77a10.823 10.823 0 0 0-14.852.585 109.53 109.53 0 0 1-84.793 35.165 108.55 108.55 0 0 1-75.887-35.1 10.823 10.823 0 0 0-14.82-.617 10.53 10.53 0 0 0-.617 14.852 129.35 129.35 0 0 0 101.4 41.86 129.35 129.35 0 0 0 90.155-41.925 10.4 10.4 0 0 0-.586-14.82"/></g><path fill="transparent" stroke="transparent" stroke-width="2.219" d="M376.48 187.5h1247.04v1125H376.48z"/></g></svg>